<svg xmlns="http://www.w3.org/2000/svg" version="1.1" xmlns:xlink="http://www.w3.org/1999/xlink" xmlns:svgjs="http://svgjs.dev/svgjs" width="1000" height="1000" viewBox="0 0 1000 1000"><rect width="1000" height="1000" fill="#ffffff"></rect><g transform="matrix(0.7,0,0,0.7,149.57575902764802,450.3703195316913)"><svg viewBox="0 0 396 57" data-background-color="#ffffff" preserveAspectRatio="xMidYMid meet" height="143" width="1000" xmlns="http://www.w3.org/2000/svg" xmlns:xlink="http://www.w3.org/1999/xlink"><g id="tight-bounds" transform="matrix(1,0,0,1,0.23999917864483677,-0.23934279027378125)"><svg viewBox="0 0 395.52 57.478685229339156" height="57.478685229339156" width="395.52"><g><svg viewBox="0 0 476.5872362455559 69.25972829813665" height="57.478685229339156" width="395.52"><g transform="matrix(1,0,0,1,81.0672362455559,9.572075329192547)"><svg viewBox="0 0 395.52 50.11557763975156" height="50.11557763975156" width="395.52"><g id="textblocktransform"><svg viewBox="0 0 395.52 50.11557763975156" height="50.11557763975156" width="395.52" id="textblock"><g><svg viewBox="0 0 395.52 50.11557763975156" height="50.11557763975156" width="395.52"><g transform="matrix(1,0,0,1,0,0)"><svg width="395.52" viewBox="4.199999809265137 -35.099998474121094 282.0299987792969 35.69999694824219" height="50.11557763975156" data-palette-color="#000000"><g class="wordmark-text-0" data-fill-palette-color="primary" id="text-0"><path d="M4.2-34.5L9.2-34.5 9.2 0 4.2 0 4.2-34.5ZM39.75-34.5L44.6-34.5 44.6-1.95Q44.6 0 42.75 0L42.75 0 38.45 0Q37.6 0 37.12-0.4 36.65-0.8 36.3-1.55L36.3-1.55 25-24.85Q24.55-25.85 23.95-27.13 23.35-28.4 23.05-29.5L23.05-29.5 22.3-29.5Q22.4-28.35 22.45-27.18 22.5-26 22.5-24.8L22.5-24.8 22.5 0 17.6 0 17.6-32.55Q17.6-34.5 19.5-34.5L19.5-34.5 23.65-34.5Q24.5-34.5 25-34.1 25.5-33.7 25.85-32.95L25.85-32.95 36.75-10.25Q37.3-9.2 37.92-7.85 38.55-6.5 39.15-5.2L39.15-5.2 39.95-5.2Q39.85-6.55 39.8-7.88 39.75-9.2 39.75-10.5L39.75-10.5 39.75-34.5ZM62.9-35.1L62.9-35.1Q65.4-35.05 68.07-34.85 70.75-34.65 73.4-34.05L73.4-34.05 73.05-30.5Q70.9-30.6 68.22-30.65 65.55-30.7 63.05-30.7L63.05-30.7Q61.3-30.7 60.05-30.6 58.8-30.5 58-30.05 57.2-29.6 56.82-28.6 56.45-27.6 56.45-25.85L56.45-25.85Q56.45-23.2 57.45-22.13 58.45-21.05 60.7-20.5L60.7-20.5 67.65-18.65Q71.65-17.65 73.15-15.28 74.65-12.9 74.65-8.9L74.65-8.9Q74.65-5.9 73.97-4.05 73.3-2.2 71.87-1.2 70.45-0.2 68.2 0.2 65.95 0.6 62.84 0.6L62.84 0.6Q61.15 0.6 58.34 0.45 55.55 0.3 51.9-0.4L51.9-0.4 52.25-4.05Q55.2-3.95 57.07-3.88 58.95-3.8 60.3-3.8 61.65-3.8 63-3.8L63-3.8Q65.5-3.8 66.95-4.17 68.4-4.55 69-5.68 69.59-6.8 69.59-8.95L69.59-8.95Q69.59-10.8 69.17-11.85 68.75-12.9 67.82-13.43 66.9-13.95 65.45-14.3L65.45-14.3 58.3-16.25Q54.55-17.3 53-19.65 51.45-22 51.45-25.9L51.45-25.9Q51.45-28.9 52.12-30.75 52.8-32.6 54.2-33.52 55.59-34.45 57.75-34.77 59.9-35.1 62.9-35.1ZM87.79-34.55L87.79-34.55Q90.29-34.55 92.89-34.55 95.49-34.55 98.02-34.48 100.54-34.4 102.84-34.25L102.84-34.25 102.64-30.4 88.89-30.4Q87.39-30.4 86.69-29.65 85.99-28.9 85.99-27.25L85.99-27.25 85.99-7.25Q85.99-5.6 86.69-4.83 87.39-4.05 88.89-4.05L88.89-4.05 102.64-4.05 102.84-0.25Q100.54-0.1 98.02-0.05 95.49 0 92.89 0.03 90.29 0.05 87.79 0.05L87.79 0.05Q84.69 0.05 82.87-1.63 81.04-3.3 80.99-6.1L80.99-6.1 80.99-28.4Q81.04-31.25 82.87-32.9 84.69-34.55 87.79-34.55ZM81.89-16.25L81.89-20.1 100.69-20.1 100.69-16.25 81.89-16.25ZM121.89-35.1L121.89-35.1Q124.14-35.1 125.74-35 127.34-34.9 128.69-34.68 130.04-34.45 131.49-34.05L131.49-34.05 130.99-30.3Q129.49-30.45 128.19-30.53 126.89-30.6 125.42-30.65 123.94-30.7 121.89-30.7L121.89-30.7Q118.69-30.7 116.84-29.45 114.99-28.2 114.22-25.28 113.44-22.35 113.44-17.25L113.44-17.25Q113.44-12.15 114.22-9.22 114.99-6.3 116.84-5.05 118.69-3.8 121.89-3.8L121.89-3.8Q125.14-3.8 127.37-3.93 129.59-4.05 131.69-4.35L131.69-4.35 132.19-0.6Q129.99 0.05 127.67 0.33 125.34 0.6 121.89 0.6L121.89 0.6Q116.89 0.6 113.87-1.13 110.84-2.85 109.49-6.75 108.14-10.65 108.14-17.25L108.14-17.25Q108.14-23.85 109.49-27.75 110.84-31.65 113.87-33.38 116.89-35.1 121.89-35.1ZM145.99-34.5L150.99-34.5 150.99 0 145.99 0 145.99-34.5ZM135.04-34.5L161.99-34.5 161.99-30.2 135.04-30.2 135.04-34.5ZM167.24-34.5L172.19-34.5 172.19-7.3Q172.19-5.7 172.99-4.93 173.79-4.15 175.44-4.15L175.44-4.15 187.79-4.15 188.04-0.3Q184.69-0.05 181.24 0 177.79 0.05 174.34 0.05L174.34 0.05Q170.54 0.05 168.89-1.83 167.24-3.7 167.24-6.55L167.24-6.55 167.24-34.5ZM202.18-34.5L207.28-34.5Q207.93-34.5 208.43-34.13 208.93-33.75 209.13-33.15L209.13-33.15 220.03 0 214.83 0 206.23-27.75Q206.03-28.5 205.83-29.25 205.63-30 205.43-30.65L205.43-30.65 204.03-30.65Q203.83-30 203.63-29.25 203.43-28.5 203.18-27.75L203.18-27.75 194.58 0 189.43 0 200.33-33.15Q200.53-33.75 201.03-34.13 201.53-34.5 202.18-34.5L202.18-34.5ZM195.88-14.65L213.48-14.65 213.48-10.5 195.88-10.5 195.88-14.65ZM246.78-34.5L251.63-34.5 251.63-1.95Q251.63 0 249.78 0L249.78 0 245.48 0Q244.63 0 244.16-0.4 243.68-0.8 243.33-1.55L243.33-1.55 232.03-24.85Q231.58-25.85 230.98-27.13 230.38-28.4 230.08-29.5L230.08-29.5 229.33-29.5Q229.43-28.35 229.48-27.18 229.53-26 229.53-24.8L229.53-24.8 229.53 0 224.63 0 224.63-32.55Q224.63-34.5 226.53-34.5L226.53-34.5 230.68-34.5Q231.53-34.5 232.03-34.1 232.53-33.7 232.88-32.95L232.88-32.95 243.78-10.25Q244.33-9.2 244.96-7.85 245.58-6.5 246.18-5.2L246.18-5.2 246.98-5.2Q246.88-6.55 246.83-7.88 246.78-9.2 246.78-10.5L246.78-10.5 246.78-34.5ZM272.53-34.95L272.53-34.95Q276.33-34.95 278.95-34.05 281.58-33.15 283.18-31.13 284.78-29.1 285.5-25.68 286.23-22.25 286.23-17.25L286.23-17.25Q286.23-12.25 285.5-8.83 284.78-5.4 283.18-3.38 281.58-1.35 278.95-0.45 276.33 0.45 272.53 0.45L272.53 0.45Q268.93 0.45 265.85 0.33 262.78 0.2 260.03 0L260.03 0 262.13-4Q264.23-3.9 266.8-3.83 269.38-3.75 272.53-3.75L272.53-3.75Q275.73-3.75 277.58-5 279.43-6.25 280.2-9.18 280.98-12.1 280.98-17.25L280.98-17.25Q280.98-22.4 280.2-25.33 279.43-28.25 277.58-29.53 275.73-30.8 272.53-30.8L272.53-30.8Q269.43-30.8 266.98-30.75 264.53-30.7 262.18-30.65L262.18-30.65 260.03-34.5Q262.78-34.7 265.85-34.83 268.93-34.95 272.53-34.95ZM260.03-34.5L265.03-34.5 265.03 0 260.03 0 260.03-34.5Z" fill="#000000" data-fill-palette-color="primary"></path></g></svg></g></svg></g></svg></g></svg></g><g><svg viewBox="0 0 69.23615113867392 69.25972829813665" height="69.25972829813665" width="69.23615113867392"><g><svg xmlns="http://www.w3.org/2000/svg" xmlns:xlink="http://www.w3.org/1999/xlink" version="1.1" x="0" y="0" viewBox="0 0 99.85599517822266 99.88999938964844" enable-background="new 0 0 99.856 99.89" xml:space="preserve" width="69.23615113867392" height="69.25972829813665" class="icon-icon-0" data-fill-palette-color="accent" id="icon-0"><g fill="#2ecc40" data-fill-palette-color="accent"><path d="M30.449 21.133c0 0.264 0.044 0.576 0.069 0.864 0.005 0.008 0.013 0.014 0.019 0.019 0.834 0.967 1.997 1.454 3.192 1.459 0.98-0.005 1.948-0.333 2.744-1.013 0.973-0.838 1.457-2.001 1.462-3.191-0.005-0.986-0.34-1.954-1.029-2.76-0.363-0.429-0.876-0.973-1.445-1.558-0.546 0.14-1.106 0.319-1.648 0.579C31.989 16.468 30.494 17.831 30.449 21.133zM23.677 14.742c0 0.326 0.049 0.706 0.086 1.073 1.417 1.095 2.811 2.283 4.13 3.523 0.553-3.252 2.65-5.292 4.753-6.246 0.219-0.103 0.439-0.19 0.657-0.278-1.469-1.415-3.087-2.912-4.599-4.257-0.55 0.137-1.113 0.318-1.658 0.582C25.223 10.075 23.727 11.434 23.677 14.742zM31.288 58.174c-1.672-0.024-3.279 0.428-4.462 1.057-0.089 0.972-0.125 1.847-0.129 2.568 0 1.332 0.105 2.175 0.133 2.381 0.352 2.658 2.644 4.592 5.234 4.592 0.229 0 0.475-0.016 0.719-0.045 2.848-0.462 4.41-2.379 4.533-6.008v-0.178c0-0.013-0.023-0.356-0.018-0.592-0.005-0.126-0.005-0.2-0.005-0.222 0.004-0.33 0.024-0.716 0.054-1.127C35.812 58.904 33.594 58.201 31.288 58.174zM25.879 6.696c0.155-0.074 0.31-0.132 0.465-0.196-0.147-0.125-0.277-0.23-0.416-0.346-2.904 1.594-5.626 3.483-8.142 5.604 1.02 0.6 2.104 1.283 3.241 2.067C21.323 10.059 23.594 7.737 25.879 6.696zM89.3 63.458c0 1.195-0.164 2.525-0.486 3.971 0.47-0.086 0.954-0.193 1.42-0.271 0.096-0.011 1.557-0.218 3.723-0.218 0.849 0 1.821 0.04 2.854 0.127 1.417-3.876 2.411-7.954 2.829-12.211-3.284 0.558-7.646 1.38-12.063 2.324C88.539 58.667 89.305 60.71 89.3 63.458zM81.301 37.774c-0.287-6.889-3.279-8.56-5.511-9.046-2.118 1.407-4.94 2.581-8.701 3.581 1.799 1.724 3.548 4.371 3.592 8.207 0 0.593-0.062 1.217-0.156 1.852C74.643 41.225 78.187 39.768 81.301 37.774zM67.626 43.112c0.232-0.943 0.348-1.814 0.348-2.597-0.006-2.987-1.413-5.008-2.906-6.394-0.458-0.422-0.894-0.749-1.303-1.026-2.762 0.582-5.916 1.111-9.608 1.584 1.246 1.732 2.347 4.101 2.367 7.25 0 0.998-0.121 2.058-0.37 3.173C60.407 44.524 64.216 43.898 67.626 43.112zM80.025 27.812c1.895 1.504 3.427 4.099 3.871 8.097 2.454-2.025 4.409-4.342 6.001-7.007-0.007-0.011 1.175-1.979 2.613-4.99-2.095-3.413-4.543-6.582-7.367-9.389-2.961 6.179-4.887 9.87-6.944 12.168C78.806 26.977 79.422 27.332 80.025 27.812zM69.268 56.59c6.854-2.866 22.544-5.934 30.588-7.258-0.082-6.955-1.592-13.56-4.241-19.557-0.641 1.184-1.058 1.882-1.073 1.909-1.979 3.321-4.511 6.32-7.756 8.874-8.099 6.214-17.921 8.322-30.896 10.054-8.189 1.243-9.996 3.435-11.539 5.447-1.244 1.725-1.649 4.395-1.645 5.591h0.001c0 0.074 0 0.074 0 0.079h-1.377l1.377 0.071c0.006 0.212 0.011 0.33 0.021 0.647 0 0.055 0 0.15 0.007 0.272 0.122 5.574-3.501 10.671-9.254 11.376-0.451 0.058-0.919 0.095-1.416 0.095-5.29-0.005-9.871-3.913-10.595-9.28-0.057-0.395-0.186-1.495-0.186-3.121 0.012-3.679 0.591-10.68 5.296-17.719 4.766-7.25 13.841-13.21 26.579-14.724 11.978-1.424 18.148-3.712 20.434-5.68 1.056-0.658 3.447-4.653 7.347-12.84C72.421 4.067 61.664 0 49.939 0 43.348 0 37.07 1.307 31.308 3.628c3.354 2.93 7.604 6.928 9.704 9.355 1.563 1.809 2.336 4.062 2.336 6.288 0.005 2.687-1.135 5.389-3.344 7.299-1.807 1.544-4.055 2.319-6.275 2.319-2.687 0.005-5.396-1.13-7.293-3.334-3.225-3.84-9.666-8.28-12.73-9.912C5.232 24.591 0 36.642 0 49.938c0 22.976 15.533 42.282 36.65 48.107C42.612 74.489 55.594 62.201 69.268 56.59zM71.375 73.571c1.366-0.851 2.763-1.604 4.179-2.239 1.838-0.796 3.709-1.44 5.578-2.017 0.48-1.164 0.723-2.356 0.723-3.512-0.019-2.688-1.193-5.101-3.27-6.51-2.979 0.779-5.548 1.565-7.219 2.287-1.95 0.816-3.878 1.79-5.77 2.903 0.584 0.259 1.175 0.592 1.752 1.016C69.362 66.966 70.997 69.565 71.375 73.571zM41.947 99.192c2.609 0.421 5.266 0.698 7.992 0.698 0.796 0 1.572-0.082 2.358-0.119 0.84-2.945 1.942-5.745 3.26-8.379-4.452-0.027-7.744-1.62-9.92-3.181C44.233 91.505 42.997 95.157 41.947 99.192zM91.066 72.506c-4.326 0.73-9.031 1.914-13.341 3.783-8.017 3.536-15.883 12.005-19.573 22.868 15.955-2.644 29.331-12.825 36.373-26.789-0.189-0.005-0.391-0.015-0.568-0.015C92.137 72.354 91.002 72.517 91.066 72.506zM39.924 52.935c0.148-0.217 0.333-0.438 0.501-0.66-3.075-3.157-5.729-3.98-7.809-3.991-0.941 0-1.778 0.183-2.515 0.432-1.471 2.599-2.316 5.126-2.791 7.372 1.239-0.395 2.594-0.605 3.977-0.622 2.234-0.021 4.619 0.611 6.586 2.023C38.26 56.038 38.885 54.465 39.924 52.935zM62.562 66.424c-2.258 1.584-4.44 3.427-6.511 5.582 2.897 0.743 6.225 2.784 8.003 7.446 1.487-1.502 3.064-2.854 4.693-4.066C68.611 68.225 65.083 66.808 62.562 66.424zM53.881 74.42c-2.622 3.142-5.021 6.851-7.117 11.24 0.205 0.162 0.383 0.315 0.616 0.477 1.845 1.277 4.573 2.55 8.228 2.55 0.461 0 0.984-0.077 1.481-0.119 1.441-2.454 3.068-4.733 4.849-6.805C60.262 75.837 56.641 74.682 53.881 74.42zM47.92 47.01c-0.273-6.261-3.163-8.458-5.111-9.379-4.69 2.049-8.206 4.889-10.628 7.983 0.149-0.008 0.284-0.035 0.437-0.035 2.84-0.016 6.222 1.224 9.67 4.718C43.651 49.088 45.485 47.943 47.92 47.01zM53.215 45.577c0.41-1.348 0.6-2.567 0.604-3.647-0.005-2.869-1.164-4.934-2.356-6.354-0.128-0.151-0.247-0.259-0.373-0.396-1.793 0.33-3.519 0.721-5.097 1.234 0.058 0.045 0.115 0.079 0.172 0.126 2.096 1.674 4.098 4.726 4.446 9.61C51.421 45.934 52.292 45.743 53.215 45.577zM85.873 68.036c0.512-1.781 0.727-3.304 0.727-4.578-0.015-2.827-0.962-4.561-1.928-5.639-0.991 0.223-1.964 0.451-2.921 0.681 1.809 1.953 2.824 4.576 2.808 7.304 0.003 0.869-0.125 1.756-0.326 2.634C84.781 68.299 85.328 68.159 85.873 68.036z" fill="#000000" data-fill-palette-color="accent"></path></g></svg></g></svg></g></svg></g><defs></defs></svg><rect width="395.52" height="57.478685229339156" fill="none" stroke="none" visibility="hidden"></rect></g></svg></g></svg>